<svg id="eMxyIC9bF0m1" xmlns="http://www.w3.org/2000/svg" xmlns:xlink="http://www.w3.org/1999/xlink" viewBox="0 0 1920 1080" shape-rendering="geometricPrecision" text-rendering="geometricPrecision" style="background-color:transparent"><rect width="1920" height="1080" rx="0" ry="0" transform="translate(0 0.000001)" fill="#1b1b1e" stroke-width="0"/><line x1="0" y1="-528.770998" x2="0" y2="551.229002" transform="translate(201.129413 528.770998)" fill="none" stroke="#212123" stroke-width="3"/><line x1="0" y1="-528.770998" x2="0" y2="551.229002" transform="translate(399.497039 528.770998)" fill="none" stroke="#212123" stroke-width="3"/><line x1="0" y1="-528.770998" x2="0" y2="551.229002" transform="translate(600.619771 528.770998)" fill="none" stroke="#212123" stroke-width="3"/><line x1="0" y1="-528.770998" x2="0" y2="551.229002" transform="translate(798.987397 528.770998)" fill="none" stroke="#212123" stroke-width="3"/><line x1="0" y1="-528.770997" x2="0" y2="551.229002" transform="translate(1000.110129 528.770998)" fill="none" stroke="#212123" stroke-width="3"/><line x1="0" y1="-528.770998" x2="0" y2="551.229002" transform="translate(1201.232861 528.770998)" fill="none" stroke="#212123" stroke-width="3"/><line x1="0" y1="-528.770998" x2="0" y2="551.229002" transform="translate(1399.600488 528.770998)" fill="none" stroke="#212123" stroke-width="3"/><line x1="0" y1="-528.770998" x2="0" y2="551.229002" transform="translate(1600.72322 528.770998)" fill="none" stroke="#212123" stroke-width="3"/><line x1="0" y1="-541.273644" x2="0" y2="541.273644" transform="translate(1799.91426 541.273644)" fill="none" stroke="#212123" stroke-width="3"/></svg>
