<svg id="eyglY6UeLGO1" xmlns="http://www.w3.org/2000/svg" xmlns:xlink="http://www.w3.org/1999/xlink" viewBox="0 0 1920 1080" shape-rendering="geometricPrecision" text-rendering="geometricPrecision" style="background-color:transparent"><g transform="translate(0 0.000001)"><rect width="1920.315506" height="1082.547287" rx="0" ry="0" transform="translate(0 0.000001)" fill="#1b1b1e" stroke-width="0"/><line x1="0" y1="-528.770998" x2="0" y2="551.229002" transform="translate(201.129413 528.770998)" fill="none" stroke="#212123" stroke-width="3"/><line x1="0" y1="-528.770998" x2="0" y2="551.229002" transform="translate(399.497039 528.770998)" fill="none" stroke="#212123" stroke-width="3"/><line x1="0" y1="-528.770998" x2="0" y2="551.229002" transform="translate(600.619771 528.770998)" fill="none" stroke="#212123" stroke-width="3"/><line x1="0" y1="-528.770998" x2="0" y2="551.229002" transform="translate(798.987397 528.770998)" fill="none" stroke="#212123" stroke-width="3"/><line x1="0" y1="-528.770997" x2="0" y2="551.229002" transform="translate(1000.110129 528.770998)" fill="none" stroke="#212123" stroke-width="3"/><line x1="0" y1="-528.770998" x2="0" y2="551.229002" transform="translate(1201.232861 528.770998)" fill="none" stroke="#212123" stroke-width="3"/><line x1="0" y1="-528.770998" x2="0" y2="551.229002" transform="translate(1399.600488 528.770998)" fill="none" stroke="#212123" stroke-width="3"/><line x1="0" y1="-528.770998" x2="0" y2="551.229002" transform="translate(1600.72322 528.770998)" fill="none" stroke="#212123" stroke-width="3"/><line x1="-1.458581" y1="-540" x2="1.45858" y2="540" transform="translate(1800.845817 540)" fill="none" stroke="#212123" stroke-width="3"/></g><g><g><line x1="-96" y1="0" x2="96" y2="0" transform="translate(2236.961317 430.249666)" fill="none" stroke="#3f5787" stroke-width="3"/></g></g></svg>
